<svg width="192" height="31" viewBox="0 0 192 31" fill="none" xmlns="http://www.w3.org/2000/svg">
<path d="M10.112 24.448C8.27733 24.448 6.50667 24.224 4.8 23.776C3.11467 23.3067 1.73867 22.7093 0.672 21.984L2.752 17.312C3.75467 17.952 4.90667 18.4853 6.208 18.912C7.53067 19.3173 8.84267 19.52 10.144 19.52C11.0187 19.52 11.7227 19.4453 12.256 19.296C12.7893 19.1253 13.1733 18.912 13.408 18.656C13.664 18.3787 13.792 18.0587 13.792 17.696C13.792 17.184 13.5573 16.7787 13.088 16.48C12.6187 16.1813 12.0107 15.936 11.264 15.744C10.5173 15.552 9.68533 15.36 8.768 15.168C7.872 14.976 6.96533 14.7307 6.048 14.432C5.152 14.1333 4.33067 13.7493 3.584 13.28C2.83733 12.7893 2.22933 12.16 1.76 11.392C1.29067 10.6027 1.056 9.61067 1.056 8.416C1.056 7.072 1.41867 5.856 2.144 4.768C2.89067 3.68 4 2.80533 5.472 2.144C6.944 1.48267 8.77867 1.152 10.976 1.152C12.448 1.152 13.888 1.32267 15.296 1.664C16.7253 1.984 17.9947 2.464 19.104 3.104L17.152 7.808C16.0853 7.232 15.0293 6.80533 13.984 6.528C12.9387 6.22933 11.9253 6.08 10.944 6.08C10.0693 6.08 9.36533 6.176 8.832 6.368C8.29867 6.53867 7.91467 6.77333 7.68 7.072C7.44533 7.37067 7.328 7.712 7.328 8.096C7.328 8.58667 7.552 8.98133 8 9.28C8.46933 9.55733 9.07733 9.792 9.824 9.984C10.592 10.1547 11.424 10.336 12.32 10.528C13.2373 10.72 14.144 10.9653 15.04 11.264C15.9573 11.5413 16.7893 11.9253 17.536 12.416C18.2827 12.8853 18.88 13.5147 19.328 14.304C19.7973 15.072 20.032 16.0427 20.032 17.216C20.032 18.5173 19.6587 19.7227 18.912 20.832C18.1867 21.92 17.088 22.7947 15.616 23.456C14.1653 24.1173 12.3307 24.448 10.112 24.448Z" fill="#F38D68"/>
<path d="M22.9588 24V1.6H33.1988C35.2468 1.6 37.0068 1.93067 38.4788 2.592C39.9721 3.25333 41.1241 4.21333 41.9348 5.472C42.7454 6.70933 43.1508 8.18133 43.1508 9.888C43.1508 11.5733 42.7454 13.0347 41.9348 14.272C41.1241 15.5093 39.9721 16.4693 38.4788 17.152C37.0068 17.8133 35.2468 18.144 33.1988 18.144H26.4788L29.2948 15.392V24H22.9588ZM29.2948 16.064L26.4788 13.152H32.8148C34.1374 13.152 35.1188 12.864 35.7588 12.288C36.4201 11.712 36.7508 10.912 36.7508 9.888C36.7508 8.84267 36.4201 8.032 35.7588 7.456C35.1188 6.88 34.1374 6.592 32.8148 6.592H26.4788L29.2948 3.68V16.064ZM55.0088 24.288C52.9608 24.288 51.1688 23.904 49.6328 23.136C48.1181 22.3467 46.9341 21.28 46.0807 19.936C45.2488 18.5707 44.8328 17.024 44.8328 15.296C44.8328 13.568 45.2381 12.032 46.0488 10.688C46.8808 9.32267 48.0221 8.26667 49.4728 7.52C50.9234 6.752 52.5554 6.368 54.3688 6.368C56.0754 6.368 57.6328 6.72 59.0408 7.424C60.4488 8.10667 61.5688 9.12 62.4008 10.464C63.2328 11.808 63.6488 13.44 63.6488 15.36C63.6488 15.5733 63.6381 15.8187 63.6168 16.096C63.5954 16.3733 63.5741 16.6293 63.5528 16.864H49.8248V13.664H60.3208L58.0168 14.56C58.0381 13.7707 57.8888 13.088 57.5688 12.512C57.2701 11.936 56.8434 11.488 56.2888 11.168C55.7554 10.848 55.1261 10.688 54.4008 10.688C53.6754 10.688 53.0354 10.848 52.4808 11.168C51.9474 11.488 51.5314 11.9467 51.2328 12.544C50.9341 13.12 50.7848 13.8027 50.7848 14.592V15.52C50.7848 16.3733 50.9554 17.1093 51.2968 17.728C51.6594 18.3467 52.1714 18.8267 52.8328 19.168C53.4941 19.488 54.2834 19.648 55.2008 19.648C56.0541 19.648 56.7794 19.5307 57.3768 19.296C57.9954 19.04 58.6034 18.656 59.2008 18.144L62.4008 21.472C61.5688 22.3893 60.5448 23.0933 59.3288 23.584C58.1128 24.0533 56.6728 24.288 55.0088 24.288ZM74.196 24.288C71.9773 24.288 70.2493 23.744 69.012 22.656C67.7747 21.5467 67.156 19.8827 67.156 17.664V2.784H73.236V17.6C73.236 18.2187 73.4067 18.7093 73.748 19.072C74.0893 19.4133 74.5267 19.584 75.06 19.584C75.7853 19.584 76.404 19.4027 76.916 19.04L78.42 23.296C77.908 23.6373 77.2787 23.8827 76.532 24.032C75.7853 24.2027 75.0067 24.288 74.196 24.288ZM64.628 11.84V7.296H77.204V11.84H64.628ZM89.3525 24.288C87.3045 24.288 85.5125 23.904 83.9765 23.136C82.4618 22.3467 81.2778 21.28 80.4245 19.936C79.5925 18.5707 79.1765 17.024 79.1765 15.296C79.1765 13.568 79.5818 12.032 80.3925 10.688C81.2245 9.32267 82.3658 8.26667 83.8165 7.52C85.2672 6.752 86.8992 6.368 88.7125 6.368C90.4192 6.368 91.9765 6.72 93.3845 7.424C94.7925 8.10667 95.9125 9.12 96.7445 10.464C97.5765 11.808 97.9925 13.44 97.9925 15.36C97.9925 15.5733 97.9818 15.8187 97.9605 16.096C97.9392 16.3733 97.9178 16.6293 97.8965 16.864H84.1685V13.664H94.6645L92.3605 14.56C92.3818 13.7707 92.2325 13.088 91.9125 12.512C91.6138 11.936 91.1872 11.488 90.6325 11.168C90.0992 10.848 89.4698 10.688 88.7445 10.688C88.0192 10.688 87.3792 10.848 86.8245 11.168C86.2912 11.488 85.8752 11.9467 85.5765 12.544C85.2778 13.12 85.1285 13.8027 85.1285 14.592V15.52C85.1285 16.3733 85.2992 17.1093 85.6405 17.728C86.0032 18.3467 86.5152 18.8267 87.1765 19.168C87.8378 19.488 88.6272 19.648 89.5445 19.648C90.3978 19.648 91.1232 19.5307 91.7205 19.296C92.3392 19.04 92.9472 18.656 93.5445 18.144L96.7445 21.472C95.9125 22.3893 94.8885 23.0933 93.6725 23.584C92.4565 24.0533 91.0165 24.288 89.3525 24.288ZM100.796 24V6.656H106.588V11.712L105.724 10.272C106.236 8.97067 107.068 8 108.22 7.36C109.372 6.69867 110.769 6.368 112.412 6.368V11.84C112.134 11.7973 111.889 11.776 111.676 11.776C111.484 11.7547 111.27 11.744 111.036 11.744C109.798 11.744 108.796 12.0853 108.028 12.768C107.26 13.4293 106.876 14.5173 106.876 16.032V24H100.796ZM125.833 24.288C124.275 24.288 122.974 23.968 121.929 23.328C120.905 22.688 120.137 21.7067 119.625 20.384C119.113 19.0613 118.857 17.3653 118.857 15.296C118.857 13.2693 119.123 11.5947 119.657 10.272C120.211 8.94933 121.011 7.968 122.057 7.328C123.102 6.688 124.361 6.368 125.833 6.368C127.411 6.368 128.841 6.73067 130.121 7.456C131.422 8.18133 132.446 9.216 133.193 10.56C133.961 11.8827 134.345 13.4613 134.345 15.296C134.345 17.152 133.961 18.752 133.193 20.096C132.446 21.4187 131.422 22.4533 130.121 23.2C128.841 23.9253 127.411 24.288 125.833 24.288ZM114.921 24V0.255999H121.001V9.568L120.681 15.296L120.713 21.024V24H114.921ZM124.553 19.456C125.235 19.456 125.843 19.296 126.377 18.976C126.931 18.656 127.369 18.1867 127.689 17.568C128.03 16.928 128.201 16.1707 128.201 15.296C128.201 14.4213 128.03 13.6853 127.689 13.088C127.369 12.4693 126.931 12 126.377 11.68C125.843 11.36 125.235 11.2 124.553 11.2C123.87 11.2 123.251 11.36 122.697 11.68C122.163 12 121.726 12.4693 121.385 13.088C121.065 13.6853 120.905 14.4213 120.905 15.296C120.905 16.1707 121.065 16.928 121.385 17.568C121.726 18.1867 122.163 18.656 122.697 18.976C123.251 19.296 123.87 19.456 124.553 19.456ZM144.467 24.288C143.059 24.288 141.789 24.0107 140.659 23.456C139.549 22.9013 138.675 22.0373 138.035 20.864C137.416 19.6693 137.107 18.1653 137.107 16.352V6.656H143.187V15.36C143.187 16.704 143.432 17.664 143.923 18.24C144.435 18.816 145.149 19.104 146.067 19.104C146.664 19.104 147.208 18.9653 147.699 18.688C148.189 18.4107 148.584 17.9733 148.883 17.376C149.181 16.7573 149.331 15.968 149.331 15.008V6.656H155.411V24H149.619V19.104L150.739 20.48C150.141 21.76 149.277 22.72 148.147 23.36C147.016 23.9787 145.789 24.288 144.467 24.288ZM159.327 24V6.656H165.119V11.712L164.255 10.272C164.767 8.97067 165.599 8 166.751 7.36C167.903 6.69867 169.3 6.368 170.943 6.368V11.84C170.666 11.7973 170.42 11.776 170.207 11.776C170.015 11.7547 169.802 11.744 169.567 11.744C168.33 11.744 167.327 12.0853 166.559 12.768C165.791 13.4293 165.407 14.5173 165.407 16.032V24H159.327ZM181.776 30.496C180.112 30.496 178.522 30.304 177.008 29.92C175.514 29.536 174.234 28.9707 173.168 28.224L175.376 23.968C176.101 24.544 176.997 24.992 178.064 25.312C179.152 25.6533 180.208 25.824 181.232 25.824C182.874 25.824 184.058 25.4613 184.784 24.736C185.509 24.032 185.872 22.9973 185.872 21.632V19.584L186.192 14.72L186.16 9.824V6.656H191.952V20.832C191.952 24.1173 191.066 26.5493 189.296 28.128C187.525 29.7067 185.018 30.496 181.776 30.496ZM180.72 23.104C179.184 23.104 177.765 22.7627 176.464 22.08C175.184 21.376 174.149 20.4053 173.36 19.168C172.592 17.9093 172.208 16.4267 172.208 14.72C172.208 13.0133 172.592 11.5413 173.36 10.304C174.149 9.04533 175.184 8.07467 176.464 7.392C177.765 6.70933 179.184 6.368 180.72 6.368C182.192 6.368 183.45 6.66667 184.496 7.264C185.541 7.84 186.33 8.74667 186.864 9.984C187.418 11.2213 187.696 12.8 187.696 14.72C187.696 16.64 187.418 18.2187 186.864 19.456C186.33 20.6933 185.541 21.6107 184.496 22.208C183.45 22.8053 182.192 23.104 180.72 23.104ZM182.16 18.272C182.885 18.272 183.525 18.1227 184.08 17.824C184.656 17.5253 185.104 17.1093 185.424 16.576C185.765 16.0427 185.936 15.424 185.936 14.72C185.936 14.016 185.765 13.3973 185.424 12.864C185.104 12.3307 184.656 11.9253 184.08 11.648C183.525 11.3493 182.885 11.2 182.16 11.2C181.434 11.2 180.784 11.3493 180.208 11.648C179.632 11.9253 179.173 12.3307 178.832 12.864C178.512 13.3973 178.352 14.016 178.352 14.72C178.352 15.424 178.512 16.0427 178.832 16.576C179.173 17.1093 179.632 17.5253 180.208 17.824C180.784 18.1227 181.434 18.272 182.16 18.272Z" fill="#1A3974"/>
</svg>
